<?xml version="1.0" encoding="UTF-8" standalone="no"?>
<!DOCTYPE svg PUBLIC "-//W3C//DTD SVG 1.1//EN" "http://www.w3.org/Graphics/SVG/1.1/DTD/svg11.dtd">
<svg width="100%" height="100%" viewBox="0 0 1956 343" version="1.1" xmlns="http://www.w3.org/2000/svg" xmlns:xlink="http://www.w3.org/1999/xlink" xml:space="preserve" xmlns:serif="http://www.serif.com/" style="fill-rule:evenodd;clip-rule:evenodd;stroke-linejoin:round;stroke-miterlimit:2;">
    <g transform="matrix(1,0,0,1,-942.017,-908.69)">
        <g transform="matrix(1.07497,0,0,1.07497,-207.051,-2.9817)">
            <g transform="matrix(24.8393,0,0,24.8393,-7206.14,-27747)">
                <g transform="matrix(12,0,0,12,348.58,1161.92)">
                    <path d="M0.39,0.013C0.512,0.013 0.602,-0.034 0.655,-0.098L0.553,-0.185C0.512,-0.14 0.461,-0.117 0.393,-0.117C0.255,-0.117 0.17,-0.221 0.17,-0.349C0.17,-0.477 0.255,-0.583 0.39,-0.583C0.453,-0.583 0.505,-0.561 0.547,-0.517L0.646,-0.603C0.583,-0.678 0.504,-0.713 0.39,-0.713C0.174,-0.713 0.025,-0.55 0.025,-0.349C0.025,-0.149 0.182,0.013 0.39,0.013Z" style="fill-rule:nonzero;"/>
                </g>
                <g transform="matrix(12,0,0,12,356.176,1161.92)">
                    <path d="M0.297,0.013C0.458,0.013 0.574,-0.109 0.574,-0.259C0.574,-0.409 0.458,-0.532 0.297,-0.532C0.136,-0.532 0.02,-0.409 0.02,-0.259C0.02,-0.109 0.136,0.013 0.297,0.013ZM0.155,-0.259C0.155,-0.34 0.211,-0.409 0.297,-0.409C0.383,-0.409 0.439,-0.34 0.439,-0.259C0.439,-0.178 0.383,-0.11 0.297,-0.11C0.211,-0.11 0.155,-0.178 0.155,-0.259Z" style="fill-rule:nonzero;"/>
                </g>
                <g transform="matrix(12,0,0,12,363.244,1161.92)">
                    <path d="M0.277,0.013C0.37,0.013 0.417,-0.026 0.445,-0.085L0.445,-0L0.576,-0L0.576,-0.73L0.441,-0.73L0.441,-0.44C0.413,-0.495 0.366,-0.531 0.277,-0.531C0.134,-0.531 0.02,-0.408 0.02,-0.258C0.02,-0.108 0.134,0.013 0.277,0.013ZM0.155,-0.259C0.155,-0.34 0.213,-0.409 0.299,-0.409C0.388,-0.409 0.445,-0.339 0.445,-0.258C0.445,-0.177 0.388,-0.109 0.299,-0.109C0.213,-0.109 0.155,-0.18 0.155,-0.259Z" style="fill-rule:nonzero;"/>
                </g>
                <g transform="matrix(12,0,0,12,370.636,1161.92)">
                    <path d="M0.289,0.013C0.392,0.013 0.479,-0.033 0.521,-0.098L0.416,-0.177C0.392,-0.137 0.347,-0.107 0.289,-0.107C0.221,-0.107 0.175,-0.15 0.16,-0.211L0.549,-0.211C0.552,-0.228 0.553,-0.244 0.553,-0.259C0.553,-0.409 0.445,-0.533 0.289,-0.533C0.133,-0.533 0.02,-0.409 0.02,-0.259C0.02,-0.109 0.128,0.013 0.289,0.013ZM0.16,-0.312C0.175,-0.374 0.223,-0.417 0.287,-0.417C0.353,-0.417 0.402,-0.37 0.417,-0.312L0.16,-0.312Z" style="fill-rule:nonzero;"/>
                </g>
                <g transform="matrix(12,0,0,12,377.32,1161.92)">
                    <path d="M0.218,0.013C0.333,0.013 0.42,-0.059 0.42,-0.155C0.42,-0.233 0.385,-0.289 0.234,-0.328C0.172,-0.344 0.164,-0.36 0.164,-0.378C0.164,-0.41 0.192,-0.424 0.229,-0.424C0.264,-0.424 0.296,-0.408 0.321,-0.368L0.419,-0.443C0.366,-0.512 0.31,-0.533 0.226,-0.533C0.104,-0.533 0.032,-0.465 0.032,-0.374C0.032,-0.308 0.053,-0.245 0.192,-0.212C0.274,-0.193 0.287,-0.178 0.287,-0.151C0.287,-0.12 0.261,-0.097 0.215,-0.097C0.171,-0.097 0.131,-0.118 0.093,-0.161L0.002,-0.078C0.059,-0.017 0.13,0.013 0.218,0.013Z" style="fill-rule:nonzero;"/>
                </g>
                <g transform="matrix(12,0,0,12,382.408,1161.92)">
                    <path d="M0.237,-0L0.311,-0L0.311,-0.12L0.255,-0.12C0.229,-0.12 0.213,-0.135 0.213,-0.168L0.213,-0.405L0.323,-0.405L0.323,-0.52L0.213,-0.52L0.213,-0.639L0.078,-0.625L0.078,-0.52L0.005,-0.52L0.005,-0.405L0.078,-0.405L0.078,-0.161C0.078,-0.048 0.134,-0 0.237,-0Z" style="fill-rule:nonzero;"/>
                </g>
                <g transform="matrix(12,0,0,12,386.344,1161.92)">
                    <path d="M0.04,-0L0.175,-0L0.175,-0.266C0.175,-0.353 0.235,-0.405 0.313,-0.405L0.332,-0.405L0.332,-0.532C0.242,-0.537 0.189,-0.496 0.171,-0.421L0.171,-0.52L0.04,-0.52L0.04,-0Z" style="fill-rule:nonzero;"/>
                </g>
                <g transform="matrix(12,0,0,12,390.088,1161.92)">
                    <path d="M0.277,0.013C0.37,0.013 0.417,-0.026 0.445,-0.085L0.445,-0L0.576,-0L0.576,-0.52L0.442,-0.52L0.442,-0.438C0.414,-0.494 0.367,-0.531 0.277,-0.531C0.134,-0.531 0.02,-0.408 0.02,-0.258C0.02,-0.108 0.134,0.013 0.277,0.013ZM0.155,-0.259C0.155,-0.34 0.213,-0.409 0.299,-0.409C0.388,-0.409 0.445,-0.339 0.445,-0.258C0.445,-0.177 0.388,-0.109 0.299,-0.109C0.213,-0.109 0.155,-0.18 0.155,-0.259Z" style="fill-rule:nonzero;"/>
                </g>
                <g transform="matrix(12,0,0,12,397.48,1161.92)">
                    <path d="M0.237,-0L0.311,-0L0.311,-0.12L0.255,-0.12C0.229,-0.12 0.213,-0.135 0.213,-0.168L0.213,-0.405L0.323,-0.405L0.323,-0.52L0.213,-0.52L0.213,-0.639L0.078,-0.625L0.078,-0.52L0.005,-0.52L0.005,-0.405L0.078,-0.405L0.078,-0.161C0.078,-0.048 0.134,-0 0.237,-0Z" style="fill-rule:nonzero;"/>
                </g>
                <g transform="matrix(12,0,0,12,401.356,1161.92)">
                    <path d="M0.218,0.013C0.333,0.013 0.42,-0.059 0.42,-0.155C0.42,-0.233 0.385,-0.289 0.234,-0.328C0.172,-0.344 0.164,-0.36 0.164,-0.378C0.164,-0.41 0.192,-0.424 0.229,-0.424C0.264,-0.424 0.296,-0.408 0.321,-0.368L0.419,-0.443C0.366,-0.512 0.31,-0.533 0.226,-0.533C0.104,-0.533 0.032,-0.465 0.032,-0.374C0.032,-0.308 0.053,-0.245 0.192,-0.212C0.274,-0.193 0.287,-0.178 0.287,-0.151C0.287,-0.12 0.261,-0.097 0.215,-0.097C0.171,-0.097 0.131,-0.118 0.093,-0.161L0.002,-0.078C0.059,-0.017 0.13,0.013 0.218,0.013Z" style="fill-rule:nonzero;"/>
                </g>
            </g>
            <g transform="matrix(0.411323,0,0,0.411323,790.658,575.563)">
                <path d="M1050,797.891L861.124,797.891L842.632,829.916L768.686,958.021L694.721,1086.13L676.52,1117.66L694.721,1149.17L768.686,1277.28L842.632,1405.38L861.124,1437.43L1050,1437.43L1050,1310.31L933.875,1310.31L878.41,1214.23L822.646,1117.66L878.41,1021.08L933.875,925.004L1050,925.004L1050,797.891ZM1050,1302.07L1049.73,1302.07L1049.73,1174.98L1050,1174.98L1050,1302.07ZM1049.73,662.556L1050,662.556L1050,789.652L1049.73,789.652L1049.73,662.556ZM1050,925.004L1050.27,925.004L1050.27,797.891L1050,797.891L1050,925.004ZM1050,1437.43L1050,1310.31L1050.27,1310.31L1050.27,1437.43L1050,1437.43ZM1050,662.556L1238.86,662.556L1257.37,694.582L1331.33,822.688L1405.28,950.793L1423.49,982.307L1405.28,1013.84L1331.33,1141.94L1257.37,1270.05L1238.86,1302.07L1050,1302.07L1050,1174.98L1166.13,1174.98L1221.6,1078.88L1277.35,982.307L1221.6,885.732L1166.13,789.652L1050,789.652L1050,662.556Z" style="fill:rgb(3,4,4);"/>
            </g>
        </g>
    </g>
</svg>
