<?xml version="1.0" encoding="UTF-8" standalone="no"?>
<!DOCTYPE svg PUBLIC "-//W3C//DTD SVG 1.1//EN" "http://www.w3.org/Graphics/SVG/1.1/DTD/svg11.dtd">
<svg width="100%" height="100%" viewBox="0 0 1062 265" version="1.1" xmlns="http://www.w3.org/2000/svg" xmlns:xlink="http://www.w3.org/1999/xlink" xml:space="preserve" xmlns:serif="http://www.serif.com/" style="fill-rule:evenodd;clip-rule:evenodd;stroke-linejoin:round;stroke-miterlimit:2;">
    <g transform="matrix(1,0,0,1,-429.159,-407.765)">
        <g transform="matrix(1,0,0,1,28.4433,0)">
            <g transform="matrix(19.8225,0,0,19.8225,-12940.1,-10846.2)">
                <g transform="matrix(12,0,0,12,688.568,578.672)">
                    <path d="M0.263,0.008C0.246,0.008 0.232,0.004 0.22,-0.005C0.207,-0.014 0.197,-0.027 0.189,-0.045L0.03,-0.414C0.024,-0.429 0.022,-0.442 0.024,-0.455C0.025,-0.468 0.031,-0.478 0.042,-0.486C0.052,-0.493 0.066,-0.497 0.084,-0.497C0.099,-0.497 0.112,-0.494 0.121,-0.487C0.13,-0.48 0.139,-0.466 0.146,-0.447L0.281,-0.11L0.251,-0.11L0.39,-0.448C0.397,-0.467 0.406,-0.48 0.416,-0.487C0.425,-0.494 0.438,-0.497 0.455,-0.497C0.47,-0.497 0.481,-0.493 0.49,-0.486C0.499,-0.478 0.504,-0.468 0.506,-0.456C0.508,-0.443 0.506,-0.43 0.499,-0.415L0.337,-0.045C0.33,-0.027 0.32,-0.014 0.308,-0.005C0.295,0.004 0.28,0.008 0.263,0.008Z" style="fill:rgb(51,51,51);fill-rule:nonzero;"/>
                </g>
                <g transform="matrix(12,0,0,12,694.772,578.672)">
                    <path d="M0.288,0.01C0.237,0.01 0.193,-0 0.156,-0.021C0.119,-0.042 0.09,-0.071 0.069,-0.11C0.048,-0.148 0.038,-0.193 0.038,-0.245C0.038,-0.284 0.044,-0.32 0.056,-0.351C0.067,-0.382 0.084,-0.408 0.106,-0.431C0.128,-0.453 0.154,-0.47 0.185,-0.482C0.216,-0.493 0.25,-0.499 0.288,-0.499C0.339,-0.499 0.383,-0.489 0.42,-0.468C0.457,-0.447 0.486,-0.418 0.507,-0.38C0.528,-0.342 0.538,-0.297 0.538,-0.245C0.538,-0.206 0.532,-0.17 0.521,-0.139C0.509,-0.108 0.492,-0.081 0.47,-0.059C0.448,-0.036 0.422,-0.019 0.391,-0.008C0.36,0.004 0.326,0.01 0.288,0.01ZM0.288,-0.085C0.313,-0.085 0.334,-0.091 0.353,-0.103C0.372,-0.115 0.386,-0.133 0.397,-0.157C0.407,-0.18 0.412,-0.21 0.412,-0.245C0.412,-0.298 0.401,-0.338 0.378,-0.365C0.355,-0.391 0.325,-0.404 0.288,-0.404C0.263,-0.404 0.242,-0.398 0.223,-0.387C0.204,-0.375 0.19,-0.357 0.18,-0.334C0.169,-0.31 0.164,-0.28 0.164,-0.245C0.164,-0.192 0.175,-0.153 0.198,-0.126C0.221,-0.098 0.251,-0.085 0.288,-0.085Z" style="fill:rgb(51,51,51);fill-rule:nonzero;"/>
                </g>
                <g transform="matrix(12,0,0,12,701.624,578.672)">
                    <path d="M0.289,0.01C0.246,0.01 0.21,0.003 0.181,-0.012C0.152,-0.027 0.13,-0.048 0.116,-0.077C0.102,-0.105 0.095,-0.14 0.095,-0.182L0.095,-0.395L0.043,-0.395C0.027,-0.395 0.015,-0.399 0.006,-0.408C-0.003,-0.416 -0.007,-0.427 -0.007,-0.442C-0.007,-0.457 -0.003,-0.469 0.006,-0.477C0.015,-0.485 0.027,-0.489 0.043,-0.489L0.095,-0.489L0.095,-0.58C0.095,-0.601 0.1,-0.616 0.112,-0.627C0.123,-0.638 0.138,-0.643 0.158,-0.643C0.178,-0.643 0.193,-0.638 0.204,-0.627C0.215,-0.616 0.22,-0.601 0.22,-0.58L0.22,-0.489L0.326,-0.489C0.342,-0.489 0.354,-0.485 0.363,-0.477C0.372,-0.469 0.376,-0.457 0.376,-0.442C0.376,-0.427 0.372,-0.416 0.363,-0.408C0.354,-0.399 0.342,-0.395 0.326,-0.395L0.22,-0.395L0.22,-0.189C0.22,-0.157 0.227,-0.133 0.241,-0.117C0.255,-0.101 0.278,-0.093 0.309,-0.093C0.32,-0.093 0.33,-0.094 0.339,-0.096C0.348,-0.098 0.355,-0.099 0.362,-0.1C0.37,-0.101 0.377,-0.098 0.382,-0.093C0.387,-0.087 0.39,-0.075 0.39,-0.058C0.39,-0.045 0.388,-0.033 0.384,-0.023C0.379,-0.012 0.371,-0.005 0.36,-0.001C0.351,0.002 0.34,0.004 0.326,0.007C0.312,0.009 0.3,0.01 0.289,0.01Z" style="fill:rgb(51,51,51);fill-rule:nonzero;"/>
                </g>
                <g transform="matrix(12,0,0,12,706.232,578.672)">
                    <path d="M0.226,0.01C0.191,0.01 0.159,0.003 0.132,-0.011C0.104,-0.024 0.082,-0.043 0.067,-0.066C0.051,-0.089 0.043,-0.116 0.043,-0.145C0.043,-0.181 0.052,-0.21 0.071,-0.231C0.09,-0.252 0.12,-0.267 0.162,-0.276C0.204,-0.285 0.26,-0.29 0.331,-0.29L0.381,-0.29L0.381,-0.218L0.332,-0.218C0.291,-0.218 0.258,-0.216 0.233,-0.212C0.208,-0.208 0.191,-0.201 0.181,-0.192C0.17,-0.182 0.165,-0.168 0.165,-0.151C0.165,-0.129 0.173,-0.111 0.188,-0.097C0.203,-0.083 0.225,-0.076 0.252,-0.076C0.274,-0.076 0.294,-0.081 0.311,-0.092C0.328,-0.102 0.341,-0.116 0.351,-0.134C0.361,-0.152 0.366,-0.173 0.366,-0.196L0.366,-0.311C0.366,-0.344 0.359,-0.368 0.344,-0.383C0.329,-0.398 0.305,-0.405 0.27,-0.405C0.251,-0.405 0.23,-0.403 0.208,-0.398C0.185,-0.393 0.162,-0.385 0.137,-0.374C0.124,-0.368 0.113,-0.366 0.104,-0.369C0.094,-0.372 0.086,-0.377 0.081,-0.386C0.076,-0.394 0.073,-0.403 0.073,-0.413C0.073,-0.423 0.076,-0.433 0.081,-0.443C0.086,-0.452 0.095,-0.459 0.108,-0.464C0.139,-0.477 0.168,-0.486 0.197,-0.491C0.225,-0.496 0.251,-0.499 0.274,-0.499C0.322,-0.499 0.362,-0.492 0.393,-0.477C0.424,-0.462 0.447,-0.44 0.462,-0.411C0.477,-0.381 0.485,-0.343 0.485,-0.296L0.485,-0.056C0.485,-0.035 0.48,-0.02 0.47,-0.009C0.46,0.003 0.446,0.008 0.427,0.008C0.408,0.008 0.394,0.003 0.384,-0.009C0.373,-0.02 0.368,-0.035 0.368,-0.056L0.368,-0.104L0.376,-0.104C0.371,-0.081 0.362,-0.061 0.349,-0.044C0.335,-0.027 0.318,-0.013 0.297,-0.004C0.276,0.005 0.253,0.01 0.226,0.01Z" style="fill:rgb(51,51,51);fill-rule:nonzero;"/>
                </g>
                <g transform="matrix(12,0,0,12,712.796,578.672)">
                    <path d="M0.129,0.008C0.108,0.008 0.093,0.003 0.082,-0.009C0.071,-0.02 0.065,-0.035 0.065,-0.056L0.065,-0.434C0.065,-0.455 0.07,-0.47 0.081,-0.481C0.092,-0.492 0.107,-0.497 0.126,-0.497C0.145,-0.497 0.16,-0.492 0.171,-0.481C0.182,-0.47 0.187,-0.455 0.187,-0.434L0.187,-0.371L0.177,-0.371C0.186,-0.411 0.205,-0.441 0.232,-0.462C0.259,-0.483 0.296,-0.495 0.341,-0.499C0.355,-0.5 0.366,-0.497 0.375,-0.489C0.383,-0.48 0.388,-0.467 0.389,-0.45C0.39,-0.433 0.387,-0.42 0.378,-0.41C0.369,-0.399 0.355,-0.393 0.337,-0.391L0.315,-0.389C0.274,-0.385 0.244,-0.373 0.223,-0.352C0.202,-0.331 0.192,-0.301 0.192,-0.263L0.192,-0.056C0.192,-0.035 0.187,-0.02 0.176,-0.009C0.165,0.003 0.15,0.008 0.129,0.008Z" style="fill:rgb(51,51,51);fill-rule:nonzero;"/>
                </g>
                <g transform="matrix(12,0,0,12,717.5,578.672)">
                    <path d="M0.127,0.007C0.107,0.007 0.092,0.001 0.081,-0.011C0.07,-0.023 0.065,-0.04 0.065,-0.061L0.065,-0.428C0.065,-0.45 0.07,-0.467 0.081,-0.479C0.092,-0.49 0.107,-0.496 0.127,-0.496C0.147,-0.496 0.163,-0.49 0.174,-0.479C0.185,-0.467 0.19,-0.45 0.19,-0.428L0.19,-0.061C0.19,-0.04 0.185,-0.023 0.174,-0.011C0.163,0.001 0.148,0.007 0.127,0.007ZM0.127,-0.589C0.104,-0.589 0.086,-0.595 0.073,-0.607C0.059,-0.618 0.053,-0.634 0.053,-0.655C0.053,-0.676 0.059,-0.693 0.073,-0.704C0.086,-0.715 0.104,-0.721 0.127,-0.721C0.151,-0.721 0.169,-0.715 0.182,-0.704C0.195,-0.693 0.201,-0.676 0.201,-0.655C0.201,-0.634 0.195,-0.618 0.182,-0.607C0.169,-0.595 0.151,-0.589 0.127,-0.589Z" style="fill:rgb(51,51,51);fill-rule:nonzero;"/>
                </g>
                <g transform="matrix(12,0,0,12,720.56,578.672)">
                    <path d="M0.099,0.005C0.084,0.005 0.072,0.001 0.063,-0.008C0.053,-0.016 0.048,-0.027 0.048,-0.04C0.047,-0.053 0.053,-0.067 0.064,-0.082L0.226,-0.282L0.226,-0.223L0.074,-0.41C0.062,-0.425 0.056,-0.439 0.057,-0.452C0.058,-0.465 0.063,-0.476 0.073,-0.485C0.082,-0.493 0.094,-0.497 0.109,-0.497C0.124,-0.497 0.137,-0.494 0.148,-0.489C0.158,-0.484 0.167,-0.475 0.176,-0.464L0.296,-0.31L0.252,-0.31L0.373,-0.464C0.382,-0.475 0.392,-0.484 0.402,-0.489C0.412,-0.494 0.424,-0.497 0.439,-0.497C0.454,-0.497 0.467,-0.493 0.476,-0.484C0.485,-0.475 0.49,-0.464 0.491,-0.451C0.491,-0.438 0.485,-0.424 0.473,-0.409L0.322,-0.224L0.322,-0.28L0.484,-0.082C0.496,-0.068 0.502,-0.054 0.501,-0.041C0.5,-0.028 0.495,-0.017 0.486,-0.008C0.476,0.001 0.463,0.005 0.448,0.005C0.433,0.005 0.421,0.002 0.411,-0.003C0.401,-0.008 0.391,-0.017 0.382,-0.028L0.252,-0.192L0.294,-0.192L0.165,-0.028C0.156,-0.017 0.147,-0.009 0.137,-0.004C0.127,0.002 0.114,0.005 0.099,0.005Z" style="fill:rgb(51,51,51);fill-rule:nonzero;"/>
                </g>
            </g>
            <g transform="matrix(13.2235,0,0,13.2235,400.041,407.765)">
                <path d="M7.71,9.29C7.316,8.898 6.683,8.898 6.289,9.29C5.898,9.684 5.898,10.316 6.289,10.711L9.289,13.711C9.48,13.899 9.734,14 10,14C10.277,13.993 10.539,13.868 10.719,13.661L17.719,5.661C18.055,5.243 18.003,4.638 17.602,4.281C17.198,3.931 16.589,3.954 16.219,4.34L10,11.54L7.71,9.29Z" style="fill:rgb(89,206,143);fill-rule:nonzero;"/>
                <path d="M19,9C18.448,9 18,9.449 18,10C18,14.418 14.418,18 10,18C6.769,18 3.855,16.056 2.617,13.07C1.375,10.086 2.051,6.652 4.328,4.359C5.828,2.845 7.871,1.993 10,2C10.641,2.004 11.277,2.079 11.898,2.22C12.253,2.329 12.644,2.234 12.905,1.97C13.167,1.707 13.262,1.316 13.148,0.961C13.035,0.609 12.737,0.345 12.371,0.281C11.594,0.098 10.796,0.004 10,0C5.96,0.02 2.328,2.473 0.796,6.211C-0.734,9.949 0.137,14.243 3,17.09C4.855,18.949 7.375,19.993 10,20C15.523,20 20,15.524 20,10C20,9.449 19.551,9 19,9Z" style="fill:rgb(89,206,143);fill-rule:nonzero;"/>
            </g>
        </g>
    </g>
</svg>
